<?xml version="1.0" encoding="UTF-8"?>
<svg xmlns="http://www.w3.org/2000/svg" height="223.2" width="223.2" class="pyqrcode"><path transform="scale(2.4)" stroke="#000" class="pyqrline" d="M4 4.5h7m1 0h1m1 0h4m4 0h1m1 0h4m2 0h1m1 0h1m2 0h2m1 0h4m2 0h4m1 0h2m2 0h3m2 0h2m1 0h2m1 0h3m1 0h2m1 0h3m1 0h4m1 0h1m1 0h7m-85 1h1m5 0h1m5 0h1m3 0h1m3 0h1m1 0h1m1 0h1m2 0h1m1 0h1m1 0h3m2 0h4m2 0h1m3 0h1m2 0h2m1 0h2m1 0h1m1 0h2m1 0h3m1 0h1m1 0h1m2 0h3m2 0h2m2 0h1m5 0h1m-85 1h1m1 0h3m1 0h1m1 0h1m1 0h2m2 0h1m4 0h1m1 0h3m2 0h2m6 0h1m2 0h1m2 0h1m4 0h1m1 0h3m1 0h1m2 0h1m1 0h2m3 0h1m2 0h2m1 0h2m5 0h1m3 0h1m1 0h3m1 0h1m-85 1h1m1 0h3m1 0h1m2 0h2m1 0h1m1 0h2m1 0h1m3 0h2m1 0h1m1 0h4m6 0h2m3 0h4m1 0h1m1 0h2m1 0h1m1 0h1m1 0h1m5 0h2m1 0h2m4 0h1m1 0h1m2 0h1m2 0h1m1 0h3m1 0h1m-85 1h1m1 0h3m1 0h1m1 0h1m4 0h1m2 0h1m1 0h1m1 0h2m1 0h3m1 0h6m1 0h3m1 0h2m4 0h1m2 0h1m1 0h9m2 0h1m1 0h1m2 0h2m1 0h2m1 0h4m3 0h1m1 0h3m1 0h1m-85 1h1m5 0h1m2 0h1m2 0h2m2 0h1m1 0h1m1 0h1m2 0h1m1 0h1m1 0h2m3 0h1m4 0h1m1 0h1m2 0h1m1 0h3m3 0h3m3 0h1m1 0h1m1 0h3m1 0h1m3 0h5m2 0h1m2 0h1m5 0h1m-85 1h7m1 0h1m1 0h1m1 0h1m1 0h1m1 0h1m1 0h1m1 0h1m1 0h1m1 0h1m1 0h1m1 0h1m1 0h1m1 0h1m1 0h1m1 0h1m1 0h1m1 0h1m1 0h1m1 0h1m1 0h1m1 0h1m1 0h1m1 0h1m1 0h1m1 0h1m1 0h1m1 0h1m1 0h1m1 0h1m1 0h1m1 0h1m1 0h1m1 0h1m1 0h1m1 0h1m1 0h7m-77 1h2m1 0h1m1 0h1m1 0h1m1 0h3m2 0h2m3 0h2m3 0h1m2 0h3m1 0h2m3 0h1m1 0h1m3 0h3m3 0h1m1 0h2m1 0h2m1 0h1m1 0h2m5 0h2m-70 1h2m2 0h1m2 0h2m3 0h1m3 0h1m3 0h1m2 0h6m4 0h7m1 0h3m2 0h7m3 0h1m1 0h1m1 0h2m3 0h1m1 0h1m3 0h1m1 0h1m1 0h1m1 0h1m1 0h1m-83 1h1m1 0h1m5 0h1m1 0h2m1 0h1m1 0h1m1 0h1m1 0h4m1 0h2m1 0h1m1 0h1m2 0h1m1 0h1m1 0h1m1 0h1m2 0h1m1 0h3m1 0h2m1 0h1m1 0h2m2 0h3m2 0h2m3 0h1m1 0h1m3 0h1m2 0h1m1 0h2m1 0h1m1 0h1m-82 1h4m1 0h1m1 0h2m2 0h1m2 0h2m3 0h3m3 0h2m3 0h2m1 0h2m1 0h1m2 0h4m4 0h1m1 0h2m3 0h3m1 0h3m1 0h3m6 0h1m2 0h5m1 0h1m-83 1h3m3 0h1m1 0h2m2 0h2m3 0h4m1 0h4m1 0h1m3 0h1m1 0h4m2 0h1m2 0h1m1 0h1m4 0h1m1 0h1m1 0h1m1 0h1m5 0h1m1 0h2m1 0h2m1 0h1m2 0h2m2 0h1m3 0h2m-82 1h1m2 0h1m1 0h1m1 0h1m2 0h4m1 0h4m1 0h1m1 0h1m3 0h5m1 0h2m1 0h2m3 0h1m1 0h1m1 0h2m3 0h1m1 0h3m4 0h1m2 0h1m1 0h1m1 0h3m1 0h2m1 0h1m3 0h2m1 0h1m-81 1h5m4 0h1m1 0h1m1 0h1m1 0h1m1 0h4m1 0h1m5 0h1m1 0h1m4 0h1m1 0h2m2 0h2m3 0h2m2 0h2m2 0h2m2 0h1m1 0h1m1 0h3m2 0h2m3 0h1m1 0h1m3 0h1m1 0h1m2 0h2m-85 1h2m1 0h1m1 0h3m2 0h1m3 0h2m1 0h1m3 0h2m1 0h5m3 0h1m2 0h1m1 0h1m1 0h1m1 0h8m1 0h1m1 0h3m3 0h2m1 0h2m1 0h1m3 0h5m1 0h2m2 0h1m4 0h2m-84 1h5m2 0h2m1 0h1m3 0h2m1 0h1m2 0h6m7 0h2m2 0h2m2 0h1m1 0h3m1 0h3m2 0h3m1 0h1m3 0h2m1 0h5m2 0h1m5 0h1m1 0h2m1 0h3m-85 1h3m1 0h3m1 0h2m1 0h1m2 0h5m1 0h2m4 0h1m1 0h1m2 0h7m1 0h3m3 0h1m2 0h1m5 0h1m1 0h2m2 0h1m2 0h2m1 0h1m1 0h2m2 0h1m3 0h4m2 0h1m1 0h1m-83 1h1m1 0h2m1 0h4m1 0h1m1 0h2m2 0h1m2 0h2m2 0h1m1 0h2m1 0h1m1 0h4m4 0h2m1 0h1m2 0h2m2 0h5m3 0h1m1 0h1m6 0h1m2 0h2m2 0h1m1 0h2m1 0h1m2 0h1m-83 1h1m2 0h1m2 0h1m1 0h3m5 0h2m1 0h4m1 0h3m1 0h6m1 0h2m2 0h4m3 0h1m2 0h1m1 0h2m1 0h1m1 0h1m5 0h3m2 0h1m1 0h4m2 0h2m1 0h1m3 0h1m1 0h1m-84 1h1m2 0h1m2 0h2m2 0h2m1 0h1m1 0h2m1 0h2m1 0h2m1 0h1m1 0h2m1 0h1m1 0h3m4 0h1m2 0h3m3 0h1m2 0h1m1 0h1m1 0h1m3 0h4m1 0h1m1 0h1m1 0h4m7 0h1m1 0h1m1 0h1m-84 1h1m1 0h7m1 0h2m3 0h1m1 0h2m2 0h3m2 0h1m1 0h3m2 0h1m2 0h2m2 0h2m1 0h2m1 0h3m1 0h1m6 0h1m5 0h1m1 0h1m4 0h1m1 0h2m1 0h3m1 0h5m-83 1h3m3 0h7m1 0h1m1 0h1m3 0h2m2 0h2m3 0h1m1 0h1m2 0h3m1 0h1m1 0h2m1 0h2m3 0h1m2 0h1m1 0h1m7 0h1m1 0h1m3 0h3m3 0h1m1 0h1m3 0h3m-80 1h4m1 0h1m2 0h2m3 0h2m1 0h2m1 0h2m1 0h4m2 0h1m1 0h1m1 0h2m2 0h2m1 0h2m3 0h4m4 0h2m1 0h1m1 0h1m1 0h1m1 0h1m2 0h8m1 0h2m1 0h1m2 0h3m-83 1h2m1 0h1m1 0h1m5 0h1m1 0h1m1 0h3m1 0h1m2 0h1m1 0h1m2 0h1m2 0h1m1 0h1m1 0h2m2 0h4m1 0h2m1 0h1m1 0h3m1 0h4m3 0h1m2 0h1m3 0h1m4 0h1m1 0h1m2 0h2m1 0h1m2 0h1m-82 1h1m1 0h3m2 0h3m1 0h3m3 0h2m2 0h1m5 0h1m2 0h1m2 0h1m4 0h2m2 0h1m2 0h1m1 0h2m3 0h1m1 0h1m1 0h1m1 0h8m1 0h2m6 0h3m2 0h2m-85 1h6m6 0h3m2 0h1m2 0h1m1 0h2m2 0h3m2 0h2m2 0h1m1 0h1m1 0h3m1 0h2m1 0h1m1 0h1m1 0h2m1 0h1m1 0h1m2 0h1m4 0h1m2 0h2m2 0h1m1 0h1m3 0h2m6 0h1m-85 1h1m1 0h2m1 0h2m1 0h2m1 0h3m1 0h2m3 0h3m2 0h2m1 0h1m3 0h2m2 0h1m1 0h1m4 0h2m2 0h1m4 0h2m1 0h1m4 0h1m1 0h2m1 0h3m1 0h5m2 0h5m1 0h3m-83 1h2m4 0h1m1 0h5m3 0h4m1 0h1m1 0h1m1 0h5m3 0h1m1 0h5m2 0h2m1 0h1m3 0h1m1 0h2m1 0h1m5 0h2m1 0h1m4 0h1m9 0h5m-85 1h2m1 0h10m1 0h1m5 0h1m2 0h1m1 0h2m1 0h5m1 0h1m1 0h6m1 0h1m2 0h1m4 0h6m1 0h7m1 0h1m1 0h1m3 0h1m2 0h8m-83 1h1m3 0h1m3 0h1m3 0h1m2 0h1m1 0h4m1 0h1m1 0h5m3 0h2m1 0h2m1 0h1m2 0h1m3 0h8m3 0h1m2 0h1m2 0h3m1 0h2m2 0h2m2 0h3m3 0h1m1 0h1m-80 1h2m1 0h1m1 0h1m1 0h5m3 0h1m3 0h1m1 0h3m1 0h1m1 0h1m1 0h1m3 0h1m1 0h1m4 0h3m1 0h3m2 0h1m1 0h1m1 0h2m3 0h1m1 0h1m1 0h1m1 0h3m1 0h3m1 0h2m1 0h1m1 0h1m3 0h1m-82 1h2m3 0h4m3 0h1m1 0h3m4 0h2m1 0h2m3 0h2m1 0h1m1 0h2m1 0h1m2 0h1m1 0h5m2 0h1m3 0h3m1 0h1m2 0h2m3 0h2m1 0h1m2 0h3m3 0h2m2 0h1m-85 1h1m2 0h8m2 0h3m2 0h1m1 0h4m3 0h7m1 0h1m1 0h1m2 0h2m1 0h1m3 0h1m1 0h8m4 0h6m2 0h1m2 0h2m1 0h6m1 0h1m-83 1h2m1 0h2m3 0h3m1 0h1m1 0h1m4 0h1m2 0h1m1 0h1m1 0h2m2 0h1m2 0h6m1 0h2m1 0h1m1 0h2m2 0h1m1 0h2m3 0h1m3 0h1m1 0h3m2 0h1m3 0h2m1 0h1m3 0h1m4 0h2m-84 1h2m2 0h2m1 0h1m2 0h3m2 0h1m2 0h1m4 0h1m2 0h1m2 0h1m1 0h1m1 0h4m1 0h3m1 0h1m4 0h1m3 0h3m1 0h3m1 0h1m1 0h4m1 0h2m1 0h2m3 0h1m1 0h3m2 0h3m-85 1h1m4 0h1m1 0h9m1 0h1m1 0h3m1 0h2m1 0h5m1 0h1m1 0h2m2 0h2m1 0h1m1 0h2m4 0h3m1 0h1m5 0h1m2 0h3m2 0h2m4 0h1m1 0h1m1 0h5m1 0h2m-85 1h4m1 0h2m2 0h2m1 0h2m1 0h1m1 0h4m1 0h4m2 0h11m2 0h2m1 0h1m3 0h1m3 0h1m6 0h3m1 0h1m2 0h3m1 0h2m8 0h3m-83 1h1m1 0h2m3 0h2m1 0h1m1 0h1m1 0h4m3 0h1m4 0h1m1 0h2m10 0h2m1 0h1m2 0h2m1 0h2m3 0h1m1 0h1m9 0h3m4 0h1m1 0h5m2 0h1m1 0h1m-83 1h2m2 0h2m2 0h2m9 0h2m1 0h3m1 0h2m1 0h4m5 0h2m1 0h2m4 0h1m2 0h1m1 0h1m1 0h4m1 0h5m2 0h1m5 0h3m2 0h1m3 0h2m-84 1h5m1 0h2m1 0h1m1 0h1m1 0h2m5 0h5m1 0h4m1 0h6m1 0h1m1 0h2m4 0h3m1 0h1m1 0h8m2 0h1m3 0h1m3 0h1m2 0h5m1 0h3m1 0h1m-85 1h2m1 0h2m1 0h2m1 0h2m4 0h3m1 0h1m1 0h3m1 0h4m1 0h4m2 0h1m2 0h1m1 0h1m1 0h1m2 0h2m1 0h1m4 0h1m2 0h1m4 0h2m1 0h2m5 0h2m2 0h1m2 0h1m2 0h1m1 0h1m-77 1h1m2 0h1m1 0h3m2 0h1m2 0h5m1 0h1m4 0h3m1 0h1m2 0h2m1 0h7m4 0h1m2 0h1m1 0h3m2 0h1m6 0h1m3 0h3m1 0h4m1 0h1m-84 1h1m1 0h1m3 0h1m1 0h1m1 0h2m3 0h2m1 0h2m1 0h1m2 0h1m2 0h1m1 0h1m1 0h2m1 0h1m5 0h2m2 0h1m4 0h1m1 0h1m2 0h1m1 0h2m1 0h3m1 0h3m3 0h1m2 0h2m1 0h3m1 0h3m2 0h1m-82 1h3m1 0h1m1 0h1m4 0h3m2 0h4m3 0h2m2 0h1m4 0h1m1 0h3m2 0h1m2 0h1m3 0h2m3 0h5m3 0h1m1 0h2m1 0h3m1 0h1m1 0h3m1 0h2m1 0h2m1 0h1m-84 1h1m1 0h1m1 0h3m1 0h3m2 0h1m1 0h1m1 0h1m1 0h1m1 0h3m1 0h3m4 0h2m1 0h1m3 0h2m3 0h5m2 0h2m2 0h2m1 0h1m1 0h1m2 0h2m1 0h1m1 0h3m2 0h1m2 0h1m1 0h2m2 0h1m-82 1h3m1 0h1m5 0h1m1 0h3m2 0h4m2 0h2m3 0h1m3 0h4m2 0h2m3 0h3m3 0h2m1 0h1m2 0h4m3 0h2m3 0h1m2 0h1m4 0h1m4 0h1m-82 1h1m1 0h1m3 0h7m2 0h1m3 0h2m1 0h1m2 0h1m1 0h1m1 0h1m3 0h1m2 0h2m5 0h1m1 0h1m2 0h3m1 0h1m1 0h1m1 0h3m2 0h3m1 0h1m2 0h3m2 0h4m1 0h1m2 0h4m-83 1h4m1 0h1m1 0h1m1 0h1m3 0h1m1 0h1m2 0h1m3 0h2m1 0h1m1 0h1m1 0h3m3 0h1m7 0h1m2 0h2m1 0h2m1 0h1m4 0h2m2 0h2m1 0h2m1 0h1m4 0h2m1 0h2m2 0h1m-82 1h3m1 0h1m1 0h1m1 0h1m4 0h1m1 0h2m1 0h4m2 0h3m1 0h2m3 0h2m1 0h2m1 0h1m7 0h2m4 0h12m2 0h3m1 0h2m1 0h2m2 0h1m1 0h2m2 0h1m-85 1h6m3 0h1m1 0h6m1 0h1m2 0h2m2 0h2m2 0h1m1 0h1m7 0h1m1 0h3m1 0h3m1 0h6m1 0h1m1 0h3m1 0h3m2 0h1m3 0h2m5 0h2m2 0h2m-84 1h2m3 0h8m1 0h1m4 0h2m4 0h1m1 0h5m2 0h1m1 0h1m1 0h1m2 0h1m1 0h2m1 0h1m2 0h2m1 0h3m2 0h1m2 0h1m1 0h3m3 0h3m2 0h2m4 0h4m1 0h1m-84 1h1m5 0h4m2 0h8m1 0h3m3 0h1m1 0h2m3 0h8m2 0h2m1 0h1m1 0h1m6 0h1m4 0h1m4 0h1m1 0h4m3 0h4m2 0h3m-84 1h1m1 0h8m3 0h3m2 0h3m1 0h3m1 0h7m1 0h1m3 0h1m1 0h2m1 0h2m1 0h4m1 0h6m2 0h1m2 0h2m1 0h1m1 0h1m1 0h1m1 0h2m2 0h5m1 0h1m-83 1h1m1 0h3m3 0h8m1 0h2m4 0h1m1 0h1m1 0h2m3 0h1m1 0h2m2 0h1m4 0h4m5 0h1m3 0h1m2 0h2m3 0h1m3 0h1m1 0h3m3 0h1m3 0h3m1 0h1m-85 1h5m1 0h1m1 0h1m1 0h1m1 0h1m3 0h2m1 0h2m5 0h3m1 0h1m1 0h3m2 0h2m2 0h1m2 0h2m2 0h3m1 0h1m1 0h1m1 0h1m1 0h1m1 0h1m2 0h1m1 0h1m4 0h1m4 0h2m1 0h1m1 0h1m3 0h1m-85 1h3m1 0h1m3 0h1m3 0h6m1 0h1m8 0h1m3 0h2m2 0h2m1 0h2m2 0h2m2 0h1m3 0h2m3 0h1m1 0h1m2 0h4m1 0h3m1 0h1m1 0h1m3 0h1m3 0h2m1 0h1m-84 1h3m1 0h5m4 0h1m5 0h2m4 0h1m2 0h5m2 0h1m2 0h2m4 0h1m6 0h8m4 0h2m3 0h1m4 0h8m2 0h2m-85 1h3m1 0h2m1 0h1m1 0h1m2 0h3m3 0h1m2 0h3m3 0h2m1 0h2m2 0h3m1 0h1m1 0h2m2 0h4m2 0h2m1 0h2m1 0h1m2 0h2m1 0h2m3 0h1m2 0h1m1 0h1m1 0h2m3 0h2m3 0h1m-84 1h1m1 0h10m2 0h2m1 0h6m1 0h2m1 0h1m2 0h3m2 0h1m4 0h1m1 0h2m1 0h2m1 0h1m2 0h1m1 0h3m1 0h1m2 0h3m4 0h1m3 0h7m1 0h1m2 0h2m-85 1h1m1 0h1m4 0h2m7 0h1m1 0h1m2 0h1m2 0h1m1 0h4m5 0h3m1 0h2m1 0h2m1 0h3m1 0h2m2 0h1m3 0h1m3 0h1m2 0h1m3 0h3m2 0h5m3 0h1m1 0h1m-84 1h1m3 0h1m1 0h1m4 0h9m2 0h1m1 0h1m1 0h1m1 0h2m2 0h1m1 0h1m3 0h1m1 0h1m4 0h3m3 0h1m1 0h1m2 0h1m1 0h2m3 0h2m1 0h2m4 0h1m1 0h2m2 0h2m1 0h2m1 0h1m-83 1h3m3 0h3m2 0h2m1 0h1m1 0h1m1 0h2m3 0h1m1 0h1m1 0h4m4 0h1m1 0h1m1 0h5m1 0h1m1 0h1m6 0h1m2 0h1m1 0h1m6 0h1m2 0h1m2 0h2m2 0h2m4 0h1m-79 1h3m1 0h1m1 0h3m2 0h2m1 0h3m1 0h3m1 0h1m1 0h1m3 0h1m4 0h2m2 0h1m2 0h1m1 0h1m2 0h1m1 0h1m1 0h1m2 0h1m3 0h1m2 0h1m4 0h3m1 0h2m1 0h1m2 0h5m-85 1h1m2 0h1m4 0h2m5 0h2m1 0h2m1 0h1m1 0h2m2 0h1m1 0h1m1 0h1m2 0h1m2 0h1m1 0h1m1 0h1m3 0h2m1 0h4m4 0h3m3 0h1m2 0h3m2 0h2m1 0h1m1 0h1m4 0h5m-85 1h5m1 0h1m4 0h1m2 0h1m1 0h4m3 0h1m2 0h2m4 0h1m7 0h5m1 0h1m1 0h1m1 0h1m2 0h1m4 0h1m1 0h1m2 0h1m4 0h2m2 0h1m1 0h2m1 0h5m1 0h1m-83 1h1m1 0h2m3 0h1m1 0h3m1 0h1m1 0h2m1 0h1m2 0h6m4 0h2m1 0h3m4 0h1m3 0h2m1 0h2m4 0h2m1 0h1m3 0h1m8 0h2m1 0h1m1 0h1m4 0h1m1 0h2m-82 1h1m1 0h3m1 0h2m1 0h2m1 0h2m1 0h1m3 0h1m2 0h4m3 0h2m5 0h5m2 0h3m1 0h2m1 0h3m3 0h1m1 0h4m1 0h1m5 0h2m1 0h1m1 0h1m1 0h1m1 0h1m2 0h1m-85 1h2m1 0h2m2 0h1m3 0h1m1 0h2m1 0h1m1 0h1m1 0h2m3 0h1m2 0h1m2 0h1m1 0h1m1 0h1m2 0h4m1 0h1m3 0h3m2 0h1m1 0h1m1 0h2m1 0h1m2 0h1m1 0h1m2 0h1m7 0h1m1 0h1m1 0h1m1 0h1m-80 1h1m1 0h1m1 0h2m2 0h1m1 0h1m1 0h1m1 0h1m3 0h3m2 0h1m2 0h1m1 0h2m1 0h4m4 0h1m2 0h1m2 0h1m1 0h1m1 0h2m1 0h1m1 0h1m1 0h1m2 0h3m5 0h2m4 0h1m1 0h4m3 0h1m-77 1h2m6 0h1m1 0h3m2 0h2m1 0h2m2 0h2m1 0h1m2 0h1m1 0h1m4 0h1m8 0h2m2 0h1m1 0h1m1 0h1m1 0h1m1 0h1m1 0h3m3 0h1m2 0h1m1 0h1m2 0h1m2 0h1m-80 1h1m1 0h1m1 0h2m1 0h1m1 0h2m1 0h1m1 0h1m1 0h1m1 0h1m1 0h1m1 0h3m1 0h1m2 0h7m7 0h2m1 0h2m3 0h2m1 0h2m2 0h1m5 0h1m1 0h2m2 0h3m4 0h1m1 0h2m-85 1h1m2 0h2m2 0h5m1 0h1m2 0h2m3 0h1m1 0h1m1 0h1m2 0h3m1 0h2m3 0h2m1 0h6m5 0h1m1 0h2m4 0h3m1 0h4m9 0h1m1 0h1m1 0h2m1 0h2m-85 1h3m1 0h4m2 0h1m3 0h2m1 0h5m2 0h1m1 0h2m2 0h1m3 0h3m3 0h1m1 0h3m1 0h6m1 0h1m2 0h1m1 0h6m3 0h1m1 0h1m1 0h1m1 0h1m1 0h1m2 0h3m1 0h2m-84 1h1m2 0h2m6 0h4m1 0h2m3 0h2m1 0h4m1 0h6m1 0h1m1 0h1m1 0h1m2 0h2m2 0h1m3 0h1m1 0h2m4 0h2m2 0h1m2 0h1m3 0h3m1 0h1m1 0h4m3 0h1m-84 1h3m1 0h1m1 0h1m2 0h1m3 0h2m1 0h1m1 0h1m2 0h2m1 0h1m5 0h3m1 0h1m3 0h1m1 0h3m1 0h1m1 0h1m2 0h2m2 0h1m1 0h7m1 0h1m1 0h1m4 0h1m2 0h7m4 0h1m-84 1h1m1 0h1m1 0h1m1 0h1m1 0h1m1 0h2m1 0h2m1 0h1m3 0h1m1 0h1m1 0h3m1 0h2m1 0h3m1 0h2m5 0h1m1 0h2m1 0h3m2 0h1m7 0h1m3 0h2m3 0h2m2 0h5m2 0h2m1 0h1m-85 1h1m5 0h2m1 0h1m1 0h1m1 0h1m2 0h2m1 0h5m1 0h2m1 0h5m2 0h3m2 0h1m1 0h5m2 0h1m2 0h5m1 0h1m1 0h1m2 0h1m1 0h1m1 0h1m4 0h1m1 0h7m2 0h2m-77 1h3m1 0h2m1 0h2m1 0h2m1 0h5m2 0h1m3 0h1m1 0h1m1 0h1m1 0h1m5 0h2m3 0h2m1 0h1m3 0h1m1 0h1m3 0h1m1 0h5m1 0h2m2 0h1m1 0h1m3 0h1m2 0h2m-85 1h7m2 0h2m1 0h2m6 0h3m1 0h1m1 0h1m1 0h1m1 0h1m1 0h1m1 0h1m2 0h1m1 0h1m3 0h1m1 0h1m1 0h1m3 0h2m1 0h1m1 0h1m1 0h2m1 0h1m3 0h1m3 0h1m2 0h1m1 0h3m1 0h1m1 0h1m1 0h1m1 0h1m-85 1h1m5 0h1m1 0h2m1 0h3m1 0h1m1 0h1m1 0h1m1 0h3m1 0h1m1 0h2m3 0h2m1 0h4m6 0h1m4 0h3m3 0h1m1 0h1m4 0h1m2 0h1m1 0h4m2 0h3m3 0h2m2 0h1m-85 1h1m1 0h3m1 0h1m2 0h3m1 0h3m1 0h1m3 0h1m1 0h2m1 0h1m1 0h6m2 0h1m3 0h1m1 0h3m2 0h3m1 0h8m3 0h2m2 0h1m1 0h2m2 0h1m1 0h11m-85 1h1m1 0h3m1 0h1m5 0h2m4 0h1m3 0h1m1 0h1m3 0h1m4 0h3m1 0h1m3 0h2m2 0h2m2 0h1m2 0h1m1 0h1m3 0h1m1 0h1m1 0h2m3 0h2m2 0h2m4 0h3m2 0h1m1 0h1m-85 1h1m1 0h3m1 0h1m4 0h1m4 0h2m1 0h2m3 0h1m2 0h1m2 0h1m2 0h2m1 0h4m3 0h5m1 0h1m1 0h6m1 0h4m1 0h2m1 0h1m2 0h2m1 0h3m2 0h2m5 0h1m-85 1h1m5 0h1m3 0h1m2 0h1m2 0h2m2 0h1m1 0h1m1 0h1m1 0h1m3 0h1m1 0h5m4 0h1m2 0h1m4 0h1m2 0h2m1 0h3m3 0h2m1 0h2m2 0h3m2 0h1m1 0h6m3 0h1m-85 1h7m2 0h1m3 0h1m2 0h1m1 0h3m6 0h2m2 0h1m1 0h3m1 0h1m1 0h1m2 0h1m1 0h1m3 0h1m2 0h1m3 0h3m1 0h9m1 0h4m1 0h1m1 0h3m3 0h1m1 0h1"/></svg>
