<svg xmlns="http://www.w3.org/2000/svg" width="200" height="200">
<defs/><g transform="translate(0.0, 0.0) scale(1.0) "><defs id="defs4"/>
  <sodipodi:namedview xmlns:sodipodi="http://sodipodi.sourceforge.net/DTD/sodipodi-0.dtd" xmlns:inkscape="http://www.inkscape.org/namespaces/inkscape" id="base" pagecolor="#ffffff" bordercolor="#666666" borderopacity="1.0" inkscape:pageopacity="0.0" inkscape:pageshadow="2" inkscape:zoom="2.8" inkscape:cx="98.711147" inkscape:cy="106.90508" inkscape:document-units="px" inkscape:current-layer="layer1" showgrid="false" inkscape:window-width="958" inkscape:window-height="1059" inkscape:window-x="0" inkscape:window-y="19" inkscape:window-maximized="0"/>
  <metadata xmlns:rdf="http://www.w3.org/1999/02/22-rdf-syntax-ns#" xmlns:cc="http://creativecommons.org/ns#" xmlns:dc="http://purl.org/dc/elements/1.1/" id="metadata7">
    <rdf:RDF>
      <cc:Work rdf:about="">
        <dc:format>image/svg+xml</dc:format>
        <dc:type rdf:resource="http://purl.org/dc/dcmitype/StillImage"/>
        <dc:title/>
      </cc:Work>
    </rdf:RDF>
  </metadata>
  <g xmlns:inkscape="http://www.inkscape.org/namespaces/inkscape" xmlns:sodipodi="http://sodipodi.sourceforge.net/DTD/sodipodi-0.dtd" inkscape:label="Ebene 1" inkscape:groupmode="layer" id="layer1" transform="translate(0,-852.36218)">
    <text xml:space="preserve" style="font-size:100px;font-style:normal;font-variant:normal;font-weight:normal;font-stretch:normal;line-height:125%;letter-spacing:0px;word-spacing:0px;fill:#000000;fill-opacity:1;stroke:none;font-family:Abyssinica SIL;-inkscape-font-specification:Abyssinica SIL" x="17.677671" y="874.32281" id="text2985" sodipodi:linespacing="125%"><tspan sodipodi:role="line" id="tspan2987" x="17.677671" y="874.32281" style="font-size:12px">Replace some text here.</tspan></text>
    <flowRoot xml:space="preserve" id="flowRoot2993" style="font-size:100px;font-style:normal;font-variant:normal;font-weight:normal;font-stretch:normal;line-height:125%;letter-spacing:0px;word-spacing:0px;fill:#000000;fill-opacity:1;stroke:none;font-family:Abyssinica SIL;-inkscape-font-specification:Abyssinica SIL" transform="translate(11.616754,804.88501)"><flowRegion id="flowRegion2995"><rect id="rect2997" width="129.01521" height="49.564995" x="5.7142859" y="80"/></flowRegion><flowPara id="flowPara2999" style="font-size:12px">Also flow text may be replaced.</flowPara></flowRoot>  </g>
</g><g transform="translate(0.0, 0.0) scale(1.0) "><defs id="defs4"/>
  <sodipodi:namedview xmlns:sodipodi="http://sodipodi.sourceforge.net/DTD/sodipodi-0.dtd" xmlns:inkscape="http://www.inkscape.org/namespaces/inkscape" id="base" pagecolor="#ffffff" bordercolor="#666666" borderopacity="1.0" inkscape:pageopacity="0.0" inkscape:pageshadow="2" inkscape:zoom="2.8" inkscape:cx="98.711147" inkscape:cy="106.90508" inkscape:document-units="px" inkscape:current-layer="layer1" showgrid="false" inkscape:window-width="958" inkscape:window-height="1059" inkscape:window-x="0" inkscape:window-y="19" inkscape:window-maximized="0"/>
  <metadata xmlns:rdf="http://www.w3.org/1999/02/22-rdf-syntax-ns#" xmlns:cc="http://creativecommons.org/ns#" xmlns:dc="http://purl.org/dc/elements/1.1/" id="metadata7">
    <rdf:RDF>
      <cc:Work rdf:about="">
        <dc:format>image/svg+xml</dc:format>
        <dc:type rdf:resource="http://purl.org/dc/dcmitype/StillImage"/>
        <dc:title/>
      </cc:Work>
    </rdf:RDF>
  </metadata>
  <g xmlns:inkscape="http://www.inkscape.org/namespaces/inkscape" inkscape:label="Ebene 1" inkscape:groupmode="layer" id="layer1" transform="translate(0,-852.36218)">
    <rect style="fill:#00ff00;fill-opacity:1;stroke:none" id="rect3001" width="81.342651" height="75.083031" x="44.36261" y="924.42993"/>
  </g>
</g><g class="pyqrcode" transform="translate(160, 160) scale(1.0) "><path stroke="#000" class="pyqrline" d="M4 4.5h7m4 0h1m1 0h2m1 0h1m2 0h2m1 0h7m-29 1h1m5 0h1m1 0h1m1 0h1m1 0h2m1 0h1m1 0h2m1 0h1m1 0h1m5 0h1m-29 1h1m1 0h3m1 0h1m1 0h2m1 0h5m1 0h4m1 0h1m1 0h3m1 0h1m-29 1h1m1 0h3m1 0h1m1 0h2m1 0h2m1 0h2m1 0h2m3 0h1m1 0h3m1 0h1m-29 1h1m1 0h3m1 0h1m1 0h1m2 0h1m1 0h2m1 0h1m3 0h1m1 0h1m1 0h3m1 0h1m-29 1h1m5 0h1m1 0h1m1 0h9m1 0h1m1 0h1m5 0h1m-29 1h7m1 0h1m1 0h1m1 0h1m1 0h1m1 0h1m1 0h1m1 0h1m1 0h7m-17 1h1m1 0h1m1 0h2m1 0h2m-19 1h1m2 0h5m1 0h4m2 0h1m1 0h3m1 0h5m-28 1h4m3 0h5m8 0h1m1 0h2m3 0h2m-28 1h2m1 0h1m1 0h2m2 0h3m5 0h1m1 0h1m2 0h4m1 0h1m-29 1h2m2 0h2m1 0h1m1 0h1m1 0h1m2 0h1m1 0h8m1 0h1m-26 1h1m1 0h1m3 0h1m4 0h1m1 0h1m2 0h1m4 0h3m3 0h1m-28 1h1m1 0h1m1 0h2m3 0h1m1 0h5m1 0h4m1 0h1m2 0h1m1 0h2m-29 1h1m2 0h6m2 0h2m1 0h2m3 0h1m2 0h2m1 0h2m1 0h1m-29 1h2m2 0h1m3 0h1m1 0h2m2 0h2m2 0h4m2 0h2m1 0h1m-27 1h1m2 0h3m3 0h3m3 0h2m1 0h1m1 0h3m3 0h2m-26 1h1m6 0h2m1 0h2m2 0h1m5 0h1m4 0h1m-29 1h3m1 0h1m1 0h1m1 0h2m1 0h2m1 0h1m1 0h4m3 0h1m1 0h2m1 0h1m-27 1h4m1 0h1m7 0h1m1 0h2m2 0h5m1 0h2m-29 1h3m1 0h9m2 0h3m1 0h6m2 0h2m-21 1h2m3 0h1m2 0h1m1 0h3m3 0h2m2 0h1m-29 1h7m1 0h1m1 0h1m1 0h1m1 0h1m1 0h1m3 0h1m1 0h1m1 0h3m1 0h1m-29 1h1m5 0h1m1 0h5m3 0h5m3 0h2m1 0h2m-29 1h1m1 0h3m1 0h1m2 0h1m4 0h2m2 0h7m2 0h2m-29 1h1m1 0h3m1 0h1m2 0h4m1 0h1m3 0h4m1 0h2m1 0h2m-28 1h1m1 0h3m1 0h1m1 0h6m4 0h1m1 0h1m2 0h3m1 0h2m-29 1h1m5 0h1m5 0h1m4 0h1m3 0h2m-23 1h7m4 0h1m1 0h2m1 0h3m2 0h1m1 0h3m2 0h1"/></g></svg>